<svg xmlns="http://www.w3.org/2000/svg"><symbol id="pause" viewBox="0 0 256 256"><path d="M118 227.7H78.1V28.3H118zm59.9-199.4H138v199.4h39.9z"/></symbol><symbol id="power" viewBox="0 0 256 256"><path d="M143.6 128h-31.2V34.4h31.2zm32.9-79.9L167 60.6a78 78 0 1 1-78 0l-9.5-12.5a93.6 93.6 0 1 0 97 0z"/></symbol><symbol id="forward" viewBox="0 0 256 256"><path d="M119.9 128l-89.1 56.7V71.3zm0-56.7v113.4l81-56.7zm105.3 8.1h-24.3v97.2h24.3z"/></symbol><symbol id="stop" viewBox="0 0 256 256"><path d="M130.1 53.2v71.7c0 3.2 5.8 3.3 5.8 0V64.7c0-11.4 20.1-11.7 20.1 0v68.2c0 4.2 4.1 4.8 5.7 1.7l7.6-16.7c6.2-13 26.9-5.1 20.4 10.1-1.6 4.1-21.3 49-26.4 60.3s-15.5 23.6-34.6 23.6H95.6c-20 0-30.6-11.9-30.6-32.7V88.5c0-12.1 16.6-11.4 16.6-.6v39.8c0 3.3 6 3.3 6 0V63.8c0-12.4 18.6-12.1 18.6 0v60.4c0 3.3 5.5 3.1 5.5-.1V53.2c0-12 18.4-12.4 18.4 0zM121 27.3A26 26 0 0 0 99.8 38c-15.4-1.7-28.5 9.6-28.9 24.9-13.1 1.2-22.6 11.8-22.6 25.6v90.7c0 30.6 18.1 49.5 47.3 49.5h33.1c22.6 0 40.3-11.9 50-33.6 3.7-8.2 24.1-54.5 26.6-60.8 3.9-9.4 3.1-19.3-2.1-27.1a28.8 28.8 0 0 0-30.4-11.9V64.7c0-16.1-13.8-26.9-29.7-25.3-4.4-7.4-12.5-12.1-22.1-12.1z"/></symbol><symbol id="warning" viewBox="0 0 256 256"><path d="M128 65.5l79 144.9H49zm0-38.2L18.1 228.7h219.8zm-9.2 82.4h18.4v54.9h-18.4zM128 199a11.5 11.5 0 1 1 11.4-11.5A11.5 11.5 0 0 1 128 199z"/></symbol><symbol id="dino-icon" viewBox="0 0 1000 1000"><rect width="920" height="920" x="40" y="40" fill="none" stroke="#89d4e5" stroke-miterlimit="10" stroke-width="28" rx="72.1"/><rect width="920" height="920" x="40" y="40" fill="none" stroke="#89d4e5" stroke-miterlimit="10" stroke-width="28" rx="72.1"/><rect width="920" height="920" x="40" y="40" fill="none" stroke="#89d4e5" stroke-miterlimit="10" stroke-width="28" rx="72.1"/><rect width="920" height="920" x="40" y="40" fill="none" stroke="#89d4e5" stroke-miterlimit="10" stroke-width="28" rx="72.1"/><rect width="920" height="920" x="40" y="40" fill="none" stroke="#89d4e5" stroke-miterlimit="10" stroke-width="28" rx="72.1"/><path fill="#89d4e5" d="M507.7 40h380.2a72.1 72.1 0 0 1 72.1 72.1v72.1H507.7V40zm363 526.6a10.8 10.8 0 0 0-6.8-5.2c-9.8-2.4-21.8 4.3-35.6 12.5s-26.4 15.7-36.9 14.7-25.1-11.3-24.7-18.2c.5-10.3 14-22.4 23.8-31.3 3-2.7 5.8-5.2 8.2-7.5l4.2-4.2c12.9-12.8 26.3-25.9 37.4-41.3.1-.3 20.7-31.5 15.4-41.8l-3.2-8h-5.4c-8.4 0-20.4 9.4-42.6 22.2s-51 30.8-74.4 36.2c2.6-12.4 5.4-23.2 8.9-34.4s9.2-25.9 14.8-40.5c17-44.9 20-55.8 12.2-61.5l-2.8-4.1h-2.9c-7.7 0-15 8.9-74.8 77.7-18.3 21.1-40.3 47.7-50.3 57.4-21.7-24.2-33.1-53.8-45.2-85.7-9-23.9-18.4-48.3-32.5-70.4-26.1-40.8-63.4-64.9-99.8-64.9h-2.3c-12.9.3-21.4 6.8-28.2 12-4.5 3.4-8.3 6.3-12.5 7.2-8.7 1.8-18.2-4.1-28.2-10.4s-20-12.7-31.6-12.7a30.4 30.4 0 0 0-7.3.9c-16.4 4.2-24.5 19.2-31.7 32.4-10 18.4-16.8 28.2-33.9 24a75.5 75.5 0 0 0-18.4-2.5c-27.1 0-37.5 19.2-46.6 36.2-6.7 12.3-13.6 25.1-25.7 32.4-.9.3-2.5.6-4.5 1-12.6 2.5-35.2 7.5-41.8 23.4-5.3 12.7 5.5 29.9 5.6 30.3 4.7 10.6 9.4 21.5 6.9 31.8-3.2 13.3-11.9 22.9-18.8 30.7S127 518 127 525.4c0 13.9 10.7 22.9 21 31.5 6.9 5.8 14 11.7 18.5 19.2 5.8 9.4 5.3 19.2 4.7 30.5a150.4 150.4 0 0 0-.3 15.1c1.4 36.1 33.5 40 57 42.9l9.8 1.3a98.6 98.6 0 0 1 1.7 10.2c1.4 10.4 3 22.3 13 32.7 11.6 11.8 25.3 13 37.4 14.1l5.7.5c1 3.2 2.1 9 2.9 13.2 2.8 15.2 5.8 31 15.6 37.1 7.5 4.8 23 7.8 47.8 8.8 21.9.9 62.1 8.8 71.5 10s16.9 2.2 25.1 3.8c32.9 6.1 86.4 12.8 129.5 18.2 22.2 2.7 48.3-.2 80.5-9.3 9.1-2.6 18.1-6 26.9-9.2 5.6-2.2 11.2-4.3 16.8-6.1l12.8-4.3-9-10c-15.4-17-30.6-40.3-27.7-51.4.3-1.1 1.1-4.1 7.3-6.2 26-8.6 59.8 30.9 76.7 51.2l9.6 11.5 6.5-10.2c6.2-9.6 13.6-18.4 21.5-27.6 9.4-10.9 19-22.1 26.6-35.2 12.6-21.9 18.9-45.5 24.8-69.9l.7-2.6c14.1-53.3 11.9-63.4 8.8-68.6zm-278.6 38.9a23.9 23.9 0 1 1 23.8-23.9 23.9 23.9 0 0 1-23.8 23.9z"/></symbol><symbol id="backward" viewBox="0 0 256 256"><path d="M136.1 128l89.1 56.7V71.3zm0-56.7v113.4l-81-56.7zM30.8 79.4h24.3v97.2H30.8z"/></symbol><symbol id="tel" viewBox="0 0 256 256"><path d="M57.4 38.4l23.9-11.1 33.9 66.2-22.9 11.3c-4.5 10.5 18.1 52.7 27.7 53.4l22.4-11.1 34.5 66.6-23.9 11.7C87 255.5-7.4 72.1 57.4 38.4zm16.2 10.7L65 53.3c-44.4 23.2 35.1 177.8 81 156.8l8.2-3.9-19.1-36.8-8.6 4.2c-26.6 13-69.4-69-42.5-83.5l8.5-4.1zm65.7 64.2l24.5 7.3a25.5 25.5 0 0 0-17.2-31.8zm15.2-50.9a53.1 53.1 0 0 1 35.7 66l-15.1-4.5A37.2 37.2 0 0 0 150 77.5zm8-26.7a80.7 80.7 0 0 1 54.4 100.7l-15.4-4.6a64.9 64.9 0 0 0-43.6-80.7z"/></symbol></svg>